<?xml version="1.0" standalone="no"?>
<!DOCTYPE svg PUBLIC "-//W3C//DTD SVG 20010904//EN"
 "http://www.w3.org/TR/2001/REC-SVG-20010904/DTD/svg10.dtd">
<svg version="1.0" xmlns="http://www.w3.org/2000/svg"
 width="500.000000pt" height="500.000000pt" viewBox="0 0 500.000000 500.000000"
 preserveAspectRatio="xMidYMid meet">
<metadata>
Created by potrace 1.14, written by Peter Selinger 2001-2017
</metadata>
<g transform="translate(0.000000,500.000000) scale(0.100000,-0.100000)"
fill="#000000" stroke="none">
<path d="M3033 4791 c-13 -3 -31 -13 -41 -21 -10 -8 -25 -16 -33 -18 -8 -2
-19 -8 -24 -15 -6 -7 -17 -13 -25 -15 -8 -2 -16 -8 -18 -13 -2 -5 -19 -16 -38
-25 -19 -9 -34 -20 -34 -25 0 -5 -6 -9 -14 -9 -8 0 -22 -10 -30 -22 -9 -12
-16 -19 -16 -15 0 5 -11 -3 -24 -17 -13 -15 -28 -26 -35 -26 -6 0 -11 -7 -11
-15 0 -8 -5 -15 -12 -15 -16 0 -168 -161 -168 -178 0 -7 -4 -11 -8 -8 -5 3
-16 -4 -25 -15 -9 -10 -14 -19 -10 -19 4 0 -3 -7 -15 -16 -12 -8 -22 -22 -22
-30 0 -8 -3 -14 -8 -14 -4 0 -16 -16 -26 -35 -11 -19 -23 -35 -28 -35 -4 0 -8
-7 -8 -15 0 -8 -5 -15 -12 -15 -6 0 -9 -3 -5 -6 3 -4 -7 -26 -24 -50 -16 -24
-26 -44 -22 -44 4 0 3 -4 -3 -8 -5 -4 -17 -23 -26 -42 -55 -120 -77 -170 -88
-205 -7 -22 -15 -44 -19 -50 -3 -5 -6 -19 -6 -30 0 -11 -5 -26 -12 -33 -7 -8
-11 -18 -8 -23 4 -5 3 -15 -1 -21 -5 -7 -9 -19 -10 -28 -2 -8 -6 -33 -9 -55
-3 -22 -9 -47 -12 -55 -4 -8 -7 -28 -9 -45 -1 -16 -3 -47 -5 -68 -2 -21 -6
-40 -10 -43 -12 -7 -11 -262 1 -269 8 -5 8 -11 -1 -21 -9 -11 -8 -14 2 -14 10
0 10 -4 -2 -16 -15 -14 -19 -13 -53 5 -20 12 -45 21 -56 21 -10 0 -22 5 -25
10 -3 6 -15 10 -26 10 -10 0 -27 4 -37 9 -9 4 -30 15 -47 23 -16 8 -43 13 -60
12 -16 -2 -34 1 -40 6 -6 5 -20 11 -31 13 -10 1 -25 7 -33 12 -8 4 -44 9 -80
10 -36 0 -76 6 -88 13 -28 16 -148 16 -176 0 -12 -7 -52 -13 -88 -14 -37 0
-73 -5 -80 -10 -8 -5 -29 -9 -48 -11 -19 -1 -37 -6 -40 -10 -7 -11 -37 -24
-66 -30 -28 -5 -83 -31 -90 -43 -3 -6 -26 -19 -50 -30 -23 -11 -55 -34 -70
-52 -28 -33 -30 -66 -10 -153 10 -45 113 -250 135 -270 11 -10 20 -23 20 -30
0 -7 9 -20 20 -30 11 -10 20 -23 20 -30 0 -7 9 -20 20 -30 11 -10 20 -23 20
-30 0 -6 14 -24 30 -40 17 -16 30 -34 30 -40 0 -6 29 -40 65 -75 36 -35 65
-69 65 -74 0 -14 142 -156 155 -156 6 0 37 -27 70 -60 33 -33 64 -60 70 -60 6
0 26 -16 45 -35 19 -19 39 -35 45 -35 7 0 20 -9 30 -20 10 -11 24 -20 30 -20
7 0 18 -6 24 -14 11 -13 53 -36 178 -100 13 -6 23 -14 23 -18 0 -5 7 -8 15 -8
8 0 23 -4 33 -9 84 -41 129 -61 139 -61 7 0 28 -9 48 -20 20 -11 49 -20 65
-20 16 0 32 -4 35 -10 3 -5 21 -10 39 -10 17 0 36 -4 42 -9 31 -31 527 -31
558 0 6 5 23 9 38 9 16 0 36 4 46 9 9 5 40 19 67 31 28 12 58 26 67 31 10 5
23 9 30 9 7 0 24 12 37 25 13 14 29 25 36 25 15 0 46 45 44 63 -3 25 1 42 9
32 4 -5 18 -19 32 -30 20 -16 22 -16 11 -2 -12 15 -12 17 3 11 9 -3 16 -13 16
-20 0 -12 4 -12 20 -4 13 7 20 7 20 0 0 -11 28 -9 48 3 6 5 12 4 12 0 0 -5 14
-9 31 -9 22 -1 27 1 18 7 -11 7 -11 9 2 9 9 0 19 -3 23 -7 12 -12 29 -10 44 4
7 7 19 13 25 13 7 0 3 -7 -7 -15 -11 -8 -15 -15 -9 -15 7 0 19 7 27 16 9 8 20
12 26 9 5 -3 10 -2 10 2 0 5 10 10 23 11 44 3 87 14 87 23 0 5 7 6 15 3 8 -4
15 -1 15 7 0 7 3 10 6 6 4 -3 19 0 34 8 15 8 30 12 32 9 3 -2 11 2 18 11 7 8
19 15 27 15 7 0 16 6 19 14 3 8 13 12 25 9 10 -3 19 -1 19 5 0 11 38 28 53 24
7 -2 11 14 8 31 -1 5 3 6 8 2 6 -3 19 3 31 15 11 11 20 18 20 15 0 -3 15 10
34 30 19 19 39 35 45 35 6 0 11 7 11 15 0 35 17 68 30 60 5 -3 7 3 5 14 -2 11
3 22 11 25 8 3 14 15 14 26 0 11 5 20 10 20 6 0 10 27 10 60 0 41 -4 60 -12
60 -9 0 -8 3 2 10 19 11 6 25 -33 34 -19 4 -26 3 -22 -4 3 -5 1 -10 -4 -10 -6
0 -11 4 -11 9 0 6 -44 10 -100 9 -68 0 -98 -3 -93 -11 4 -6 1 -7 -8 -1 -20 12
-59 13 -59 1 0 -5 -7 -4 -15 3 -12 10 -15 9 -15 -6 0 -15 -2 -16 -9 -5 -6 10
-10 10 -16 1 -4 -6 -13 -9 -20 -6 -7 2 -16 -2 -19 -9 -3 -8 -14 -12 -26 -10
-11 2 -20 -1 -20 -6 0 -6 -4 -7 -10 -4 -5 3 -10 1 -10 -6 0 -7 -11 -10 -30 -7
-16 3 -30 1 -30 -4 0 -5 -4 -6 -10 -3 -5 3 -10 1 -10 -4 0 -6 -5 -11 -10 -11
-21 0 -100 -43 -94 -51 3 -5 -4 -9 -15 -9 -12 0 -21 -5 -21 -11 0 -5 -4 -8 -9
-4 -5 3 -26 -11 -47 -30 -20 -19 -44 -35 -53 -35 -13 1 -12 3 4 12 11 7 28 22
37 34 10 11 32 27 50 35 18 7 43 23 56 34 13 11 27 20 30 20 4 0 19 9 34 19
15 10 44 20 65 22 20 2 39 7 42 11 3 4 11 8 16 8 21 0 75 30 75 42 0 7 4 13 8
13 5 0 16 19 26 43 10 23 30 67 44 97 13 30 25 61 25 68 0 6 4 12 8 12 4 0 11
15 14 33 4 17 10 37 13 42 4 6 8 19 9 30 2 10 7 22 11 25 4 3 7 12 7 20 -1 8
5 30 13 49 7 18 11 35 8 38 -2 3 2 19 9 37 8 18 14 46 14 62 2 49 4 64 10 64
6 0 8 25 13 158 1 28 6 52 10 52 4 0 8 5 8 10 0 6 -3 9 -7 9 -22 -4 -25 3 -7
17 10 8 13 13 7 9 -7 -3 -13 -1 -13 4 0 6 5 11 11 11 8 0 7 6 -2 17 -12 15
-12 16 1 8 12 -7 13 -6 4 6 -5 8 -9 24 -8 37 0 12 -1 22 -5 22 -3 0 -7 33 -7
73 -2 90 -7 137 -15 137 -4 0 -5 14 -4 30 1 17 -3 36 -9 43 -6 7 -11 24 -9 40
1 15 -2 27 -6 27 -8 0 -9 7 -12 55 -1 14 -6 25 -11 25 -5 0 -6 5 -3 10 3 6 2
10 -4 10 -5 0 -8 9 -6 19 2 11 -3 25 -10 31 -8 6 -12 17 -9 25 3 7 1 16 -4 19
-6 3 -18 31 -27 61 -10 30 -22 55 -26 55 -5 0 -8 3 -7 8 4 12 -76 165 -99 190
-7 7 -13 17 -13 21 0 4 -11 21 -25 37 -14 16 -25 33 -25 37 0 4 -10 19 -22 33
-13 13 -34 38 -48 55 -14 18 -48 56 -77 86 -28 30 -54 61 -57 69 -3 8 -12 14
-21 14 -8 0 -15 7 -15 17 0 9 -3 14 -6 10 -3 -3 -24 12 -46 34 -22 21 -46 39
-52 39 -6 0 -18 9 -26 20 -8 11 -18 20 -23 20 -4 0 -17 8 -28 18 -10 11 -32
25 -47 33 -15 8 -36 22 -47 32 -11 10 -30 20 -42 23 -13 4 -23 9 -23 13 0 9
-29 10 -57 2z m321 -2725 c-3 -8 -12 -17 -19 -20 -15 -5 -70 -84 -71 -101 0
-5 -8 -24 -17 -41 -9 -17 -13 -34 -10 -38 4 -3 3 -6 0 -6 -3 0 -11 10 -18 21
-8 15 -8 19 0 15 7 -5 11 4 11 23 0 17 5 31 11 31 5 0 7 5 3 12 -4 6 -3 9 2 6
5 -3 15 0 22 8 7 8 8 14 3 14 -6 0 1 12 14 26 14 15 25 31 25 35 0 5 7 9 15 9
8 0 15 5 15 10 0 6 4 10 10 10 5 0 7 -6 4 -14z m10 -354 c3 -5 -1 -9 -9 -9 -8
0 -12 4 -9 9 3 4 7 8 9 8 2 0 6 -4 9 -8z"/>
<path d="M2546 1266 c-54 -30 -84 -93 -81 -172 2 -33 10 -75 19 -92 17 -34 65
-74 94 -79 75 -15 148 -5 192 27 23 17 25 25 26 94 l0 76 -81 0 -82 0 -1 -29
c-1 -33 10 -40 51 -35 23 2 27 -1 27 -24 0 -34 -45 -57 -91 -47 -47 10 -71 57
-66 127 7 111 92 149 158 70 20 -23 79 -19 79 6 0 26 -41 78 -70 89 -48 18
-133 13 -174 -11z"/>
<path d="M1082 1248 c3 -32 4 -33 51 -31 54 1 50 17 49 -157 0 -58 1 -112 4
-120 3 -14 37 -18 74 -11 3 1 6 62 5 136 0 75 2 139 5 144 3 4 25 7 50 7 43
-1 45 0 47 32 l3 32 -146 0 -145 0 3 -32z"/>
<path d="M1413 1180 c-17 -10 -36 -27 -42 -37 -15 -29 -17 -104 -3 -145 17
-49 51 -69 119 -70 51 -2 58 1 85 31 16 18 28 35 26 37 -2 2 -20 6 -40 9 -25
4 -39 1 -48 -10 -7 -8 -18 -15 -26 -15 -18 0 -44 28 -44 49 0 14 10 16 73 15
87 -1 97 5 87 52 -22 94 -107 133 -187 84z m105 -74 c3 -13 -5 -16 -37 -16
-45 0 -51 12 -24 42 14 16 19 17 37 4 12 -7 22 -21 24 -30z"/>
<path d="M1746 1193 c-4 -4 -27 -6 -51 -4 l-45 3 0 -134 0 -134 35 1 c20 1 37
4 40 6 2 3 5 39 6 82 2 85 13 110 51 110 29 0 54 47 35 66 -12 12 -60 15 -71
4z"/>
<path d="M1903 1193 l-53 -4 0 -130 c0 -96 3 -129 13 -130 6 0 19 -2 28 -4 30
-5 36 10 41 94 5 89 21 118 59 106 13 -4 19 2 24 24 8 39 0 51 -33 49 -15 -1
-51 -3 -79 -5z"/>
<path d="M2083 1190 c-26 -11 -59 -66 -40 -67 7 0 24 -3 40 -6 15 -3 27 -1 27
4 0 18 44 28 60 13 17 -17 6 -31 -33 -38 -84 -15 -107 -34 -107 -92 0 -35 5
-47 23 -59 32 -21 82 -25 111 -10 14 8 26 9 28 4 2 -5 20 -11 42 -13 38 -4 38
-4 32 26 -3 17 -6 68 -6 113 0 109 -13 127 -96 132 -32 1 -69 -1 -81 -7z m97
-159 c0 -19 -24 -51 -38 -51 -39 1 -40 50 -2 61 38 11 40 10 40 -10z"/>
<path d="M2913 1193 l-53 -4 0 -132 0 -133 40 1 40 0 1 55 c2 121 15 154 57
143 12 -3 21 5 28 26 14 36 2 52 -35 49 -15 -1 -50 -3 -78 -5z"/>
<path d="M3113 1181 c-88 -55 -84 -199 7 -240 82 -37 169 -2 191 76 26 96 -26
178 -117 181 -34 2 -59 -4 -81 -17z m111 -59 c3 -5 8 -24 11 -42 15 -83 -61
-135 -94 -64 -18 41 -13 83 14 110 20 20 29 23 44 14 11 -5 22 -14 25 -18z"/>
<path d="M3787 1193 c-4 -3 -32 -5 -62 -4 l-55 2 0 -184 0 -183 40 1 c44 0 44
1 40 78 -2 36 0 38 20 32 98 -31 160 23 156 136 -2 61 -26 106 -63 120 -28 11
-67 12 -76 2z m48 -76 c13 -20 14 -39 6 -109 -2 -13 -39 -28 -54 -22 -36 13
-46 104 -17 140 18 21 48 17 65 -9z"/>
<path d="M3367 1182 c-3 -4 -5 -54 -3 -111 4 -142 10 -148 154 -139 9 0 29 -2
44 -5 15 -3 30 0 35 6 5 7 9 66 8 132 l0 120 -41 3 -41 3 0 -73 c1 -93 -8
-125 -34 -133 -35 -11 -44 10 -44 108 l0 92 -37 3 c-20 2 -39 -1 -41 -6z"/>
<path d="M915 796 c-77 -34 -114 -142 -84 -248 24 -89 145 -139 239 -100 38
15 81 66 90 106 13 60 5 141 -20 181 -41 66 -148 95 -225 61z m124 -66 c47
-24 56 -156 14 -202 -20 -22 -67 -32 -91 -19 -70 38 -73 189 -3 225 27 15 48
14 80 -4z"/>
<path d="M1608 786 c-44 -29 -69 -77 -73 -136 -8 -130 60 -211 170 -204 62 4
101 28 125 74 l20 39 -38 10 c-49 14 -49 14 -56 -12 -5 -22 -42 -47 -70 -47
-64 0 -94 158 -40 210 37 35 62 34 97 -2 26 -26 38 -32 65 -30 45 5 42 35 -7
82 -37 35 -44 38 -100 38 -46 0 -69 -6 -93 -22z"/>
<path d="M1260 787 c-14 -7 -26 -18 -26 -25 -1 -7 -2 -21 -3 -32 0 -11 -7 -20
-15 -20 -8 0 -16 -7 -20 -15 -8 -22 3 -45 19 -38 12 4 15 -16 17 -103 l3 -108
38 -1 c33 -1 37 1 38 24 4 191 3 186 24 186 14 0 21 8 23 28 3 23 0 27 -23 27
-21 0 -26 4 -21 16 3 9 6 17 6 19 0 2 11 2 25 -1 14 -2 26 0 26 6 1 5 2 16 3
23 1 6 -3 15 -9 19 -16 12 -78 9 -105 -5z"/>
<path d="M3535 768 c1 -31 4 -33 36 -32 19 1 36 2 39 3 3 1 5 15 5 31 1 29 -1
30 -40 30 -40 0 -41 -1 -40 -32z"/>
<path d="M1945 698 c-72 -56 -73 -184 -2 -231 33 -21 103 -26 144 -8 36 15 73
78 73 124 0 42 -25 93 -56 114 -40 26 -126 27 -159 1z m120 -57 c3 -6 8 -27
11 -49 4 -32 1 -45 -18 -67 -40 -46 -88 -11 -88 66 0 42 42 84 69 69 11 -5 22
-14 26 -19z"/>
<path d="M2302 711 c-8 -5 -34 -6 -58 -3 l-44 5 -1 -49 c-1 -47 -1 -139 0
-195 1 -23 5 -25 39 -24 l37 2 5 96 c4 81 8 99 25 111 34 25 45 -4 45 -114 l0
-96 33 2 c17 1 35 2 40 3 4 0 7 41 7 89 0 95 12 127 46 120 22 -4 21 1 23
-121 l1 -93 38 1 37 1 0 118 c0 112 -1 119 -24 137 -28 22 -71 24 -109 5 -24
-12 -30 -12 -47 0 -21 16 -73 18 -93 5z"/>
<path d="M2757 713 c-4 -3 -32 -5 -62 -4 l-55 2 3 -183 2 -183 35 1 c19 1 38
2 41 3 3 1 4 26 2 57 -3 54 -2 55 20 48 93 -32 161 32 153 148 -3 54 -27 95
-62 108 -29 11 -68 13 -77 3z m58 -118 c4 -44 -8 -80 -29 -88 -60 -23 -88 100
-34 146 21 17 22 17 41 -1 10 -11 20 -36 22 -57z"/>
<path d="M2994 711 c-11 -5 -28 -21 -37 -35 -17 -25 -17 -26 10 -32 16 -3 34
-7 41 -10 6 -2 12 1 12 6 0 5 10 14 21 21 17 9 25 8 36 -4 22 -22 9 -35 -43
-43 -47 -7 -92 -37 -95 -64 -5 -44 3 -71 24 -84 33 -22 79 -27 109 -12 15 8
28 11 30 6 4 -12 63 -19 78 -10 9 5 9 9 1 14 -7 5 -11 44 -11 105 0 127 -11
143 -96 148 -32 1 -68 -1 -80 -6z m96 -166 c0 -27 -30 -48 -55 -39 -24 10 -14
47 15 55 39 11 40 10 40 -16z"/>
<path d="M3336 711 c-3 -4 -27 -6 -54 -3 l-48 4 0 -133 1 -133 38 -1 c27 -1
37 3 38 14 1 9 2 51 3 93 1 63 5 82 22 98 17 18 22 19 39 6 16 -11 19 -27 19
-110 1 -53 3 -97 6 -97 20 -6 66 -4 70 2 3 4 5 56 4 115 -1 104 -2 108 -28
131 -27 23 -99 33 -110 14z"/>
<path d="M3731 708 c-43 -23 -63 -61 -63 -120 0 -60 21 -111 53 -129 55 -29
153 -7 178 40 9 16 6 20 -24 25 -24 5 -42 2 -57 -9 -13 -8 -26 -15 -30 -15
-13 0 -38 32 -38 49 0 15 10 17 79 16 66 -1 80 2 84 16 6 23 -18 88 -42 112
-24 25 -106 33 -140 15z m99 -85 c0 -9 -13 -13 -40 -13 -46 0 -54 19 -18 44
20 14 24 14 40 -1 10 -9 18 -22 18 -30z"/>
<path d="M3981 699 c-25 -23 -35 -59 -26 -89 7 -21 69 -56 111 -63 34 -5 46
-17 33 -33 -16 -20 -45 -17 -67 7 -16 16 -27 19 -56 14 -44 -9 -45 -18 -7 -56
29 -29 48 -33 121 -31 106 4 133 128 36 160 -36 11 -68 19 -88 21 -5 1 -8 7
-8 15 0 23 31 28 59 9 26 -17 68 -19 84 -3 5 4 -3 20 -16 36 -23 26 -32 29
-90 31 -52 1 -69 -2 -86 -18z"/>
<path d="M3537 703 c-3 -7 -2 -237 2 -254 1 -5 13 -5 66 0 7 1 10 49 10 131
l0 130 -37 0 c-20 0 -38 -3 -41 -7z"/>
</g>
</svg>
